<?xml version="1.0" encoding="UTF-8" standalone="no"?>
<svg
   width="256.633"
   height="55"
   version="1.1"
   id="svg14"
   sodipodi:docname="napoli-logo3-white.svg"
   inkscape:version="1.1 (c4e8f9ed74, 2021-05-24)"
   xmlns:inkscape="http://www.inkscape.org/namespaces/inkscape"
   xmlns:sodipodi="http://sodipodi.sourceforge.net/DTD/sodipodi-0.dtd"
   xmlns="http://www.w3.org/2000/svg"
   xmlns:svg="http://www.w3.org/2000/svg">
  <defs
     id="defs18">
    <inkscape:path-effect
       effect="spiro"
       id="path-effect59251"
       is_visible="true"
       lpeversion="1" />
    <inkscape:path-effect
       effect="spiro"
       id="path-effect59181"
       is_visible="true"
       lpeversion="1" />
    <inkscape:path-effect
       effect="spiro"
       id="path-effect55467"
       is_visible="true"
       lpeversion="1" />
    <inkscape:path-effect
       effect="spiro"
       id="path-effect55431"
       is_visible="true"
       lpeversion="1" />
    <inkscape:path-effect
       effect="spiro"
       id="path-effect55252"
       is_visible="true"
       lpeversion="1" />
    <inkscape:path-effect
       effect="powerclip"
       id="path-effect2181"
       is_visible="true"
       lpeversion="1"
       inverse="true"
       flatten="false"
       hide_clip="false"
       message="Utilice la regla de relleno parimpar en el diálogo &lt;b&gt;Relleno y borde&lt;/b&gt; si el resultado no está aplanada después de convertir el recorte en trayectos." />
    <clipPath
       clipPathUnits="userSpaceOnUse"
       id="clipPath2177">
      <ellipse
         style="display:none;fill:#ff7f2a;fill-rule:evenodd;stroke:#6fdf6f;stroke-width:5.15906;stroke-linecap:round;stroke-linejoin:round;stroke-dashoffset:84.2649;paint-order:markers fill stroke"
         id="ellipse2179"
         cx="0.71186399"
         cy="-34.916279"
         rx="16.456268"
         ry="16.259596" />
    </clipPath>
  </defs>
  <sodipodi:namedview
     id="namedview16"
     pagecolor="#ffffff"
     bordercolor="#666666"
     borderopacity="1.0"
     inkscape:pageshadow="2"
     inkscape:pageopacity="0.0"
     inkscape:pagecheckerboard="0"
     showgrid="false"
     inkscape:zoom="1.7854493"
     inkscape:cx="214.51183"
     inkscape:cy="12.881912"
     inkscape:window-width="1920"
     inkscape:window-height="1012"
     inkscape:window-x="0"
     inkscape:window-y="40"
     inkscape:window-maximized="1"
     inkscape:current-layer="svg14"
     inkscape:object-nodes="false" />
  <path
     id="text9582-8-0-8"
     style="font-style:normal;font-variant:normal;font-weight:normal;font-stretch:normal;font-size:24.7974px;line-height:1.25;font-family:P052;-inkscape-font-specification:'P052, Normal';font-variant-ligatures:normal;font-variant-position:normal;font-variant-caps:normal;font-variant-numeric:normal;font-variant-alternates:normal;font-variant-east-asian:normal;text-indent:0;text-align:start;text-decoration:none;text-decoration-line:none;text-decoration-style:solid;text-decoration-color:#000000;letter-spacing:0px;word-spacing:0px;text-transform:none;writing-mode:lr-tb;direction:ltr;text-orientation:mixed;dominant-baseline:auto;baseline-shift:baseline;text-anchor:start;white-space:normal;shape-padding:0;shape-margin:0;vector-effect:none;fill:#848484;fill-opacity:0.952941;stroke:none;stroke-width:0.880339;stroke-linecap:butt;stroke-linejoin:miter;stroke-miterlimit:4;stroke-dasharray:none;stroke-dashoffset:0;stroke-opacity:1;stop-color:#000000"
     sodipodi:type="inkscape:offset"
     inkscape:radius="0"
     inkscape:original="M 179.76758 -35.390625 C 178.67649 -34.969069 177.85939 -34.772178 175.90039 -34.474609 L 175.90039 -33.779297 L 177.28906 -33.779297 C 177.73542 -33.779297 177.9082 -33.507594 177.9082 -32.763672 L 177.9082 -19.917969 C 177.88341 -18.306138 177.85814 -18.207205 176.99023 -18.132812 L 175.84961 -18.058594 L 175.84961 -17.314453 C 177.58543 -17.364048 178.30449 -17.388672 178.94922 -17.388672 C 179.59395 -17.388672 180.31301 -17.364048 182.04883 -17.314453 L 182.04883 -18.058594 L 180.9082 -18.132812 C 180.04029 -18.232002 180.01698 -18.28134 179.99219 -19.917969 L 179.99219 -35.193359 L 179.76758 -35.390625 z M 253.83789 -35.390625 C 252.74681 -34.969069 251.92774 -34.772178 249.96875 -34.474609 L 249.96875 -33.779297 L 251.35742 -33.779297 C 251.80378 -33.779297 251.97852 -33.507594 251.97852 -32.763672 L 251.97852 -19.917969 C 251.95372 -18.306138 251.92846 -18.207205 251.06055 -18.132812 L 249.91992 -18.058594 L 249.91992 -17.314453 C 251.65574 -17.364048 252.3748 -17.388672 253.01953 -17.388672 C 253.66426 -17.388672 254.38332 -17.364048 256.11914 -17.314453 L 256.11914 -18.058594 L 254.97852 -18.132812 C 254.11061 -18.232002 254.08534 -18.28134 254.06055 -19.917969 L 254.06055 -35.193359 L 253.83789 -35.390625 z M 122.58594 -34.548828 L 122.58594 -33.804688 L 123.77539 -33.730469 C 124.91607 -33.656077 125.01622 -33.506636 125.04102 -31.498047 L 125.04102 -20.363281 C 125.01622 -18.379489 124.91607 -18.182407 123.77539 -18.132812 L 122.58594 -18.058594 L 122.58594 -17.314453 C 124.04898 -17.364048 124.91757 -17.388672 126.20703 -17.388672 C 127.4965 -17.388672 128.38852 -17.364048 129.85156 -17.314453 L 129.85156 -18.058594 L 128.66211 -18.132812 C 127.52143 -18.182407 127.42128 -18.354692 127.39648 -20.363281 L 127.39648 -25.894531 C 128.04122 -25.944126 128.2896 -25.943359 129.45508 -25.943359 L 135.25781 -25.943359 C 136.42329 -25.943359 136.67167 -25.944126 137.31641 -25.894531 L 137.31641 -20.363281 C 137.29161 -18.379489 137.19146 -18.182407 136.05078 -18.132812 L 134.86133 -18.058594 L 134.86133 -17.314453 C 136.29958 -17.364048 137.191 -17.388672 138.48047 -17.388672 C 139.76993 -17.388672 140.66391 -17.364048 142.12695 -17.314453 L 142.12695 -18.058594 L 140.93555 -18.132812 C 139.79487 -18.182407 139.69667 -18.354692 139.67188 -20.363281 L 139.67188 -31.498047 C 139.69667 -33.506636 139.79487 -33.656077 140.93555 -33.730469 L 142.12695 -33.804688 L 142.12695 -34.548828 C 140.63911 -34.499233 139.74514 -34.474609 138.48047 -34.474609 C 137.2406 -34.474609 136.34917 -34.499233 134.86133 -34.548828 L 134.86133 -33.804688 L 136.05078 -33.730469 C 137.19146 -33.656077 137.29161 -33.506636 137.31641 -31.498047 L 137.31641 -27.083984 C 136.84526 -27.059187 136.39849 -27.035156 135.25781 -27.035156 L 129.45508 -27.035156 C 128.3144 -27.035156 127.86763 -27.059187 127.39648 -27.083984 L 127.39648 -31.498047 C 127.42128 -33.481839 127.52143 -33.680874 128.66211 -33.730469 L 129.85156 -33.804688 L 129.85156 -34.548828 C 128.36372 -34.499233 127.4717 -34.474609 126.20703 -34.474609 C 124.96716 -34.474609 124.07378 -34.499233 122.58594 -34.548828 z M 189.16602 -34.548828 L 189.16602 -33.804688 L 190.25781 -33.730469 C 191.42329 -33.631279 191.49669 -33.506636 191.52148 -31.498047 L 191.52148 -20.363281 C 191.49669 -18.354692 191.42329 -18.232002 190.25781 -18.132812 L 189.16602 -18.058594 L 189.16602 -17.314453 C 190.95143 -17.364048 191.54702 -17.388672 192.04297 -17.388672 C 192.51412 -17.388672 193.25892 -17.364048 195.01953 -17.314453 L 195.01953 -18.058594 L 193.92773 -18.132812 C 192.76226 -18.232002 192.68691 -18.354692 192.66211 -20.363281 L 192.66211 -31.871094 L 204.39258 -17.289062 L 206.62305 -16.892578 C 206.62305 -16.991768 206.62441 -17.015871 206.59961 -17.189453 C 206.57481 -17.437427 206.54883 -17.68656 206.54883 -17.810547 L 206.54883 -31.498047 C 206.57363 -33.506636 206.64898 -33.631279 207.81445 -33.730469 L 208.9043 -33.804688 L 208.9043 -34.548828 C 207.29247 -34.499233 206.50062 -34.474609 205.95508 -34.474609 C 205.40954 -34.474609 204.73896 -34.499233 203.05273 -34.548828 L 203.05273 -33.804688 L 204.14453 -33.730469 C 205.31001 -33.631279 205.38341 -33.506636 205.4082 -31.498047 L 205.4082 -19.818359 L 193.48047 -34.548828 L 192.14258 -34.474609 C 190.72913 -34.499407 190.55467 -34.499233 189.16602 -34.548828 z M 260.13672 -34.423828 C 259.3928 -34.423828 258.74805 -33.779078 258.74805 -33.035156 C 258.74805 -32.316032 259.3922 -31.671875 260.11133 -31.671875 C 260.83045 -31.671875 261.5 -32.316032 261.5 -33.035156 C 261.5 -33.729483 260.83105 -34.423828 260.13672 -34.423828 z M 160.40234 -32.787109 C 159.78241 -32.415148 159.06364 -32.093677 158.29492 -31.845703 C 158.36931 -31.151376 158.39258 -30.655438 158.39258 -29.886719 L 158.39258 -28.150391 L 156.45898 -27.283203 L 156.45898 -26.761719 L 158.34375 -26.861328 L 158.34375 -19.71875 C 158.34375 -17.883742 159.16287 -17.091797 161.07227 -17.091797 C 161.64261 -17.091797 162.23598 -17.21509 162.38477 -17.388672 L 163.57617 -18.703125 L 163.25391 -19.125 C 162.60917 -18.753039 162.28696 -18.652344 161.79102 -18.652344 C 160.82392 -18.652344 160.42578 -19.148209 160.42578 -20.363281 L 160.42578 -26.861328 L 163.60156 -26.861328 L 163.82422 -28.199219 L 160.42578 -28.050781 L 160.42578 -28.994141 C 160.42578 -30.010834 160.50084 -31.077376 160.69922 -32.515625 L 160.40234 -32.787109 z M 149.58984 -29.017578 C 145.96942 -29.017578 143.46484 -26.464344 143.46484 -22.769531 C 143.46484 -19.273098 145.64743 -16.892578 148.87109 -16.892578 C 152.68989 -16.892578 155.41797 -19.546015 155.41797 -23.265625 C 155.41797 -26.638071 152.98709 -29.017578 149.58984 -29.017578 z M 170.27148 -29.017578 C 169.37878 -29.017578 168.31162 -28.6967 167.29492 -28.101562 C 165.26154 -26.911287 164.44336 -25.398649 164.44336 -22.794922 C 164.44336 -21.257483 164.81485 -19.916911 165.48438 -18.974609 C 166.47627 -17.660347 168.11344 -16.892578 169.99805 -16.892578 C 170.94035 -16.892578 171.83292 -17.090756 172.84961 -17.537109 C 173.49434 -17.809881 174.03948 -18.132466 174.13867 -18.28125 L 174.63477 -19.125 L 174.3125 -19.373047 C 172.75026 -18.430746 172.15613 -18.207031 171.08984 -18.207031 C 169.47801 -18.207031 168.13769 -18.925552 167.44336 -20.140625 C 166.97221 -20.934142 166.79959 -21.653548 166.75 -23.091797 L 170.37109 -23.091797 C 172.15651 -23.091797 173.29714 -23.191479 174.85938 -23.439453 C 174.88417 -23.786617 174.9082 -24.009072 174.9082 -24.306641 C 174.9082 -27.158342 173.07359 -29.017578 170.27148 -29.017578 z M 214.6582 -29.017578 C 213.56712 -29.017578 212.6005 -28.746121 211.6582 -28.175781 L 210.34375 -27.382812 L 210.34375 -25.769531 L 210.98828 -25.595703 L 211.31055 -26.365234 C 211.83129 -27.530712 212.08002 -27.705078 213.2207 -27.705078 C 215.55166 -27.705078 216.5174 -26.78586 216.5918 -24.529297 L 214.13672 -24.083984 C 210.76427 -23.464049 209.35156 -22.297406 209.35156 -20.115234 C 209.35156 -18.205835 210.49277 -17.091797 212.47656 -17.091797 C 212.94771 -17.091797 213.344 -17.165076 213.51758 -17.289062 L 216.5918 -19.421875 L 216.46875 -17.314453 C 217.68382 -17.364048 218.05518 -17.388672 218.40234 -17.388672 C 218.72471 -17.388672 218.87369 -17.389439 219.7168 -17.339844 L 220.23828 -17.314453 L 220.23828 -18.058594 L 219.27148 -18.107422 C 218.62675 -18.181814 218.60097 -18.255457 218.57617 -19.544922 L 218.57617 -24.083984 C 218.57617 -27.704405 217.5347 -29.017578 214.6582 -29.017578 z M 225.07227 -29.017578 C 223.85719 -28.496833 222.49454 -28.150738 221.20508 -28.001953 L 221.20508 -27.306641 L 222.12305 -27.306641 C 223.13974 -27.281843 223.18809 -27.18427 223.21289 -25.498047 L 223.21289 -13.023438 C 223.18809 -11.386809 223.16283 -11.337471 222.29492 -11.238281 L 221.1543 -11.164062 L 221.1543 -10.419922 C 222.86532 -10.469517 223.58438 -10.494141 224.25391 -10.494141 C 224.92344 -10.494141 225.6425 -10.469517 227.35352 -10.419922 L 227.35352 -11.164062 L 226.21289 -11.238281 C 225.34498 -11.337471 225.32167 -11.386809 225.29688 -13.023438 L 225.29688 -17.710938 C 226.06559 -17.264584 226.83334 -17.091797 227.94922 -17.091797 C 228.69314 -17.091797 229.31418 -17.240307 229.71094 -17.488281 L 232.53711 -19.322266 C 233.52901 -19.966998 234.69531 -22.522341 234.69531 -24.109375 C 234.69531 -26.861886 232.41361 -29.017578 229.53711 -29.017578 C 228.61961 -29.017578 227.72684 -28.770398 227.33008 -28.398438 L 225.29688 -26.539062 L 225.29688 -28.919922 L 225.07227 -29.017578 z M 242.7793 -29.017578 C 239.15888 -29.017578 236.6543 -26.464344 236.6543 -22.769531 C 236.6543 -19.273098 238.83493 -16.892578 242.05859 -16.892578 C 245.87739 -16.892578 248.60547 -19.546015 248.60547 -23.265625 C 248.60547 -26.638071 246.17654 -29.017578 242.7793 -29.017578 z M 261.05469 -29.017578 C 259.83961 -28.496833 258.47501 -28.150738 257.18555 -28.001953 L 257.18555 -27.306641 L 258.10352 -27.306641 C 259.12021 -27.281843 259.16856 -27.18427 259.19336 -25.498047 L 259.19336 -19.917969 C 259.19336 -18.306138 259.12046 -18.207205 258.27734 -18.132812 L 257.13672 -18.058594 L 257.13672 -17.314453 C 258.87254 -17.364048 259.5916 -17.388672 260.23633 -17.388672 C 260.88106 -17.388672 261.60012 -17.364048 263.33594 -17.314453 L 263.33594 -18.058594 L 262.19531 -18.132812 C 261.3274 -18.232002 261.30214 -18.28134 261.27734 -19.917969 L 261.27734 -28.919922 L 261.05469 -29.017578 z M 149.14453 -28.199219 C 151.45069 -28.199219 153.11133 -25.720103 153.11133 -22.347656 C 153.11133 -19.471158 151.87128 -17.710937 149.83789 -17.710938 C 147.40775 -17.710938 145.77148 -20.092051 145.77148 -23.613281 C 145.77148 -26.588969 146.96236 -28.199219 149.14453 -28.199219 z M 169.97266 -28.199219 C 170.81577 -28.199219 171.46185 -27.878514 171.9082 -27.208984 C 172.45375 -26.39067 172.62678 -25.671191 172.70117 -24.009766 C 171.4365 -23.960171 170.84133 -23.935547 169.92383 -23.935547 C 168.75835 -23.935547 168.13789 -23.959997 166.79883 -24.083984 C 166.79883 -25.249462 166.89834 -25.795314 167.2207 -26.464844 C 167.74145 -27.531132 168.78238 -28.199219 169.97266 -28.199219 z M 242.33203 -28.199219 C 244.63819 -28.199219 246.29883 -25.720103 246.29883 -22.347656 C 246.29883 -19.471158 245.06073 -17.710937 243.02734 -17.710938 C 240.5972 -17.710938 238.95898 -20.092051 238.95898 -23.613281 C 238.95898 -26.588969 240.14986 -28.199219 242.33203 -28.199219 z M 228.71875 -27.40625 C 231.04971 -27.40625 232.53711 -25.770336 232.53711 -23.191406 C 232.53711 -20.414098 230.8763 -18.355469 228.64453 -18.355469 C 227.28067 -18.355469 226.26397 -18.801666 225.29688 -19.818359 L 225.29688 -24.976562 C 225.29688 -25.323726 225.41982 -25.596022 225.74219 -26.017578 C 226.46131 -26.935082 227.50368 -27.40625 228.71875 -27.40625 z M 216.5918 -23.736328 L 216.5918 -20.462891 C 215.87267 -19.446197 214.31085 -18.503906 213.34375 -18.503906 C 212.32706 -18.503906 211.48437 -19.397196 211.48438 -20.488281 C 211.48438 -21.405785 211.98009 -22.27299 212.69922 -22.744141 C 213.34395 -23.116102 214.70719 -23.463557 216.5918 -23.736328 z "
     transform="matrix(1.1359261,0,0,1.1359261,-51.0012,55.940956)"
     d="m 179.76758,-35.390625 c -1.09109,0.421556 -1.90819,0.618447 -3.86719,0.916016 v 0.695312 h 1.38867 c 0.44636,0 0.61914,0.271703 0.61914,1.015625 v 12.845703 c -0.0248,1.611831 -0.0501,1.710764 -0.91797,1.785157 l -1.14062,0.07422 v 0.744141 c 1.73582,-0.0496 2.45488,-0.07422 3.09961,-0.07422 0.64473,0 1.36379,0.02462 3.09961,0.07422 v -0.744141 l -1.14063,-0.07422 c -0.86791,-0.09919 -0.89122,-0.148528 -0.91601,-1.785157 v -15.27539 z m 74.07031,0 c -1.09108,0.421556 -1.91015,0.618447 -3.86914,0.916016 v 0.695312 h 1.38867 c 0.44636,0 0.6211,0.271703 0.6211,1.015625 v 12.845703 c -0.0248,1.611831 -0.0501,1.710764 -0.91797,1.785157 l -1.14063,0.07422 v 0.744141 c 1.73582,-0.0496 2.45488,-0.07422 3.09961,-0.07422 0.64473,0 1.36379,0.02462 3.09961,0.07422 v -0.744141 l -1.14062,-0.07422 c -0.86791,-0.09919 -0.89318,-0.148528 -0.91797,-1.785157 v -15.27539 z m -131.25195,0.841797 v 0.74414 l 1.18945,0.07422 c 1.14068,0.07439 1.24083,0.223833 1.26563,2.232422 v 11.134766 c -0.0248,1.983792 -0.12495,2.180874 -1.26563,2.230469 l -1.18945,0.07422 v 0.744141 c 1.46304,-0.0496 2.33163,-0.07422 3.62109,-0.07422 1.28947,0 2.18149,0.02462 3.64453,0.07422 v -0.744141 l -1.18945,-0.07422 c -1.14068,-0.0496 -1.24083,-0.22188 -1.26563,-2.230469 v -5.53125 c 0.64474,-0.0496 0.89312,-0.04883 2.0586,-0.04883 h 5.80273 c 1.16548,0 1.41386,-7.67e-4 2.0586,0.04883 v 5.53125 c -0.0248,1.983792 -0.12495,2.180874 -1.26563,2.230469 l -1.18945,0.07422 v 0.744141 c 1.43825,-0.0496 2.32967,-0.07422 3.61914,-0.07422 1.28946,0 2.18344,0.02462 3.64648,0.07422 v -0.744141 l -1.1914,-0.07422 c -1.14068,-0.0496 -1.23888,-0.22188 -1.26367,-2.230469 v -11.134766 c 0.0248,-2.008589 0.12299,-2.15803 1.26367,-2.232422 l 1.1914,-0.07422 v -0.74414 c -1.48784,0.0496 -2.38181,0.07422 -3.64648,0.07422 -1.23987,0 -2.1313,-0.02462 -3.61914,-0.07422 v 0.74414 l 1.18945,0.07422 c 1.14068,0.07439 1.24083,0.223833 1.26563,2.232422 v 4.414063 c -0.47115,0.0248 -0.91792,0.04883 -2.0586,0.04883 h -5.80273 c -1.14068,0 -1.58745,-0.02403 -2.0586,-0.04883 v -4.414063 c 0.0248,-1.983792 0.12495,-2.182827 1.26563,-2.232422 l 1.18945,-0.07422 v -0.74414 c -1.48784,0.0496 -2.37986,0.07422 -3.64453,0.07422 -1.23987,0 -2.13325,-0.02462 -3.62109,-0.07422 z m 66.58008,0 v 0.74414 l 1.09179,0.07422 c 1.16548,0.09919 1.23888,0.223833 1.26367,2.232422 v 11.134766 c -0.0248,2.008589 -0.0982,2.131279 -1.26367,2.230469 l -1.09179,0.07422 v 0.744141 c 1.78541,-0.0496 2.381,-0.07422 2.87695,-0.07422 0.47115,0 1.21595,0.02462 2.97656,0.07422 v -0.744141 l -1.0918,-0.07422 c -1.16547,-0.09919 -1.24082,-0.22188 -1.26562,-2.230469 v -11.507813 l 11.73047,14.582032 2.23047,0.396484 c 0,-0.09919 0.001,-0.123293 -0.0234,-0.296875 -0.0248,-0.247974 -0.0508,-0.497107 -0.0508,-0.621094 v -13.6875 c 0.0248,-2.008589 0.10015,-2.133232 1.26562,-2.232422 l 1.08985,-0.07422 v -0.74414 c -1.61183,0.0496 -2.40368,0.07422 -2.94922,0.07422 -0.54554,0 -1.21612,-0.02462 -2.90235,-0.07422 v 0.74414 l 1.0918,0.07422 c 1.16548,0.09919 1.23888,0.223833 1.26367,2.232422 v 11.679688 l -11.92773,-14.730469 -1.33789,0.07422 c -1.41345,-0.0248 -1.58791,-0.02462 -2.97656,-0.07422 z m 70.9707,0.125 c -0.74392,0 -1.38867,0.64475 -1.38867,1.388672 0,0.719124 0.64415,1.363281 1.36328,1.363281 0.71912,0 1.38867,-0.644157 1.38867,-1.363281 0,-0.694327 -0.66895,-1.388672 -1.36328,-1.388672 z m -99.73438,1.636719 c -0.61993,0.371961 -1.3387,0.693432 -2.10742,0.941406 0.0744,0.694327 0.0977,1.190265 0.0977,1.958984 v 1.736328 l -1.9336,0.867188 v 0.521484 l 1.88477,-0.09961 v 7.142578 c 0,1.835008 0.81912,2.626953 2.72852,2.626953 0.57034,0 1.16371,-0.123293 1.3125,-0.296875 l 1.1914,-1.314453 -0.32226,-0.421875 c -0.64474,0.371961 -0.96695,0.472656 -1.46289,0.472656 -0.9671,0 -1.36524,-0.495865 -1.36524,-1.710937 v -6.498047 h 3.17578 l 0.22266,-1.337891 -3.39844,0.148438 v -0.94336 c 0,-1.016693 0.0751,-2.083235 0.27344,-3.521484 z m -10.8125,3.769531 c -3.62042,0 -6.125,2.553234 -6.125,6.248047 0,3.496433 2.18259,5.876953 5.40625,5.876953 3.8188,0 6.54688,-2.653437 6.54688,-6.373047 0,-3.372446 -2.43088,-5.751953 -5.82813,-5.751953 z m 20.68164,0 c -0.8927,0 -1.95986,0.320878 -2.97656,0.916016 -2.03338,1.190275 -2.85156,2.702913 -2.85156,5.30664 0,1.537439 0.37149,2.878011 1.04102,3.820313 0.99189,1.314262 2.62906,2.082031 4.51367,2.082031 0.9423,0 1.83487,-0.198178 2.85156,-0.644531 0.64473,-0.272772 1.18987,-0.595357 1.28906,-0.744141 l 0.4961,-0.84375 -0.32227,-0.248047 c -1.56224,0.942301 -2.15637,1.166016 -3.22266,1.166016 -1.61183,0 -2.95215,-0.718521 -3.64648,-1.933594 -0.47115,-0.793517 -0.64377,-1.512923 -0.69336,-2.951172 h 3.62109 c 1.78542,0 2.92605,-0.09968 4.48829,-0.347656 0.0248,-0.347164 0.0488,-0.569619 0.0488,-0.867188 0,-2.851701 -1.83461,-4.710937 -4.63672,-4.710937 z m 44.38672,0 c -1.09108,0 -2.0577,0.271457 -3,0.841797 l -1.31445,0.792969 v 1.613281 l 0.64453,0.173828 0.32227,-0.769531 c 0.52074,-1.165478 0.76947,-1.339844 1.91015,-1.339844 2.33096,0 3.2967,0.919218 3.3711,3.175781 l -2.45508,0.445313 c -3.37245,0.619935 -4.78516,1.786578 -4.78516,3.96875 0,1.909399 1.14121,3.023437 3.125,3.023437 0.47115,0 0.86744,-0.07328 1.04102,-0.197265 l 3.07422,-2.132813 -0.12305,2.107422 c 1.21507,-0.0496 1.58643,-0.07422 1.93359,-0.07422 0.32237,0 0.47135,-7.67e-4 1.31446,0.04883 l 0.52148,0.02539 v -0.744141 l -0.9668,-0.04883 c -0.64473,-0.07439 -0.67051,-0.148035 -0.69531,-1.4375 v -4.539062 c 0,-3.620421 -1.04147,-4.933594 -3.91797,-4.933594 z m 10.41407,0 c -1.21508,0.520745 -2.57773,0.86684 -3.86719,1.015625 v 0.695312 h 0.91797 c 1.01669,0.0248 1.06504,0.122371 1.08984,1.808594 v 12.474609 c -0.0248,1.636629 -0.0501,1.685967 -0.91797,1.785157 l -1.14062,0.07422 v 0.74414 c 1.71102,-0.0496 2.43008,-0.07422 3.09961,-0.07422 0.66953,0 1.38859,0.02462 3.09961,0.07422 v -0.74414 l -1.14063,-0.07422 c -0.86791,-0.09919 -0.89122,-0.148528 -0.91601,-1.785157 v -4.6875 c 0.76871,0.446354 1.53646,0.619141 2.65234,0.619141 0.74392,0 1.36496,-0.14851 1.76172,-0.396484 l 2.82617,-1.833985 c 0.9919,-0.644732 2.1582,-3.200075 2.1582,-4.787109 0,-2.752511 -2.2817,-4.908203 -5.1582,-4.908203 -0.9175,0 -1.81027,0.24718 -2.20703,0.61914 l -2.0332,1.859376 v -2.38086 z m 17.70703,0 c -3.62042,0 -6.125,2.553234 -6.125,6.248047 0,3.496433 2.18063,5.876953 5.40429,5.876953 3.8188,0 6.54688,-2.653437 6.54688,-6.373047 0,-3.372446 -2.42893,-5.751953 -5.82617,-5.751953 z m 18.27539,0 c -1.21508,0.520745 -2.57968,0.86684 -3.86914,1.015625 v 0.695312 h 0.91797 c 1.01669,0.0248 1.06504,0.122371 1.08984,1.808594 v 5.580078 c 0,1.611831 -0.0729,1.710764 -0.91602,1.785157 l -1.14062,0.07422 v 0.744141 c 1.73582,-0.0496 2.45488,-0.07422 3.09961,-0.07422 0.64473,0 1.36379,0.02462 3.09961,0.07422 v -0.744141 l -1.14063,-0.07422 c -0.86791,-0.09919 -0.89317,-0.148528 -0.91797,-1.785157 v -9.001953 z m -111.91016,0.818359 c 2.30616,0 3.9668,2.479116 3.9668,5.851563 0,2.876498 -1.24005,4.636719 -3.27344,4.636718 -2.43014,0 -4.06641,-2.381113 -4.06641,-5.902343 0,-2.975688 1.19088,-4.585938 3.37305,-4.585938 z m 20.82813,0 c 0.84311,0 1.48919,0.320705 1.93554,0.990235 0.54555,0.818314 0.71858,1.537793 0.79297,3.199218 -1.26467,0.0496 -1.85984,0.07422 -2.77734,0.07422 -1.16548,0 -1.78594,-0.02445 -3.125,-0.148437 0,-1.165478 0.0995,-1.71133 0.42187,-2.38086 0.52075,-1.066288 1.56168,-1.734375 2.75196,-1.734375 z m 72.35937,0 c 2.30616,0 3.9668,2.479116 3.9668,5.851563 0,2.876498 -1.2381,4.636719 -3.27149,4.636718 -2.43014,0 -4.06836,-2.381113 -4.06836,-5.902343 0,-2.975688 1.19088,-4.585938 3.37305,-4.585938 z m -13.61328,0.792969 c 2.33096,0 3.81836,1.635914 3.81836,4.214844 0,2.777308 -1.66081,4.835937 -3.89258,4.835937 -1.36386,0 -2.38056,-0.446197 -3.34765,-1.46289 v -5.158203 c 0,-0.347164 0.12294,-0.61946 0.44531,-1.041016 0.71912,-0.917504 1.76149,-1.388672 2.97656,-1.388672 z m -12.12695,3.669922 v 3.273437 c -0.71913,1.016694 -2.28095,1.958985 -3.24805,1.958985 -1.01669,0 -1.85938,-0.89329 -1.85937,-1.984375 0,-0.917504 0.49571,-1.784709 1.21484,-2.25586 0.64473,-0.371961 2.00797,-0.719416 3.89258,-0.992187 z" />
  <path
     id="path15362-6-3-6-8"
     style="color:#000000;fill:#ffdd55;fill-opacity:0.87451;stroke-width:0.999994;-inkscape-stroke:none"
     d="m 51.59683,6.985818 c -1.19576,0.02482 -2.4033,0.140686 -3.61575,0.352354 -4.07972,0.712226 -8.15019,2.452064 -8.15019,3.482925 0,0.781591 0.14991,0.766498 4.28724,-0.41508 3.02835,-0.86488 9.36448,-0.87714 12.63298,-0.02582 6.24042,1.625428 12.32555,6.594114 15.01643,12.260339 1.40195,2.952132 2.76993,7.905847 2.78744,10.094579 0.004,0.510977 0.24943,1.012036 0.54422,1.114243 1.3126,0.455089 1.48637,-1.864307 0.53867,-7.189069 C 73.62945,15.375764 63.86274,7.317055 52.78855,6.991356 52.39304,6.979706 51.99541,6.977546 51.59683,6.985756 Z M 72.38738,32.7554 c 0.086,0.117678 0.17421,0.234695 0.26749,0.346819 0.64089,0.770343 1.4527,1.39794 2.35946,1.822635 z" />
  <path
     id="path15362-6-5-7-9"
     style="color:#000000;fill:#87cdde;fill-opacity:0.992157;stroke-width:0.999994;-inkscape-stroke:none"
     d="m 19.25248,2.864599 v 19.501059 19.502903 l -0.96482,0.206614 c -0.53063,0.113127 -2.12324,0.416878 -3.53826,0.67703 -2.91095,0.535177 -9.95959,2.768829 -10.93395,3.464478 -0.50041,0.357286 -0.40603,0.397396 0.42798,0.184476 14.57587,-3.721183 26.97148,-3.120424 43.95348,2.125175 6.65723,2.056364 9.69917,2.788255 14.36338,3.460792 v 0.0019 c 5.10005,0.735376 15.31338,0.512393 19.72427,-0.429824 3.76901,-0.805111 9.19271,-2.571036 10.71996,-3.490307 0.80658,-0.485452 0.85927,-0.589717 0.214,-0.420607 -9.56329,2.506211 -15.58779,3.119074 -23.83627,2.424029 C 63.17188,49.549004 58.02045,48.575955 52.27017,46.842123 45.82735,44.899489 39.68742,43.23376 37.08771,42.722753 l -2.53287,-0.498088 7.24995,-4.731833 c 3.98696,-2.60296 7.93949,-5.168576 8.78295,-5.702183 l 1.533,-0.970348 8.97111,5.978897 c 9.93638,6.622104 10.71347,7.106455 10.29935,6.436401 -0.2828,-0.457588 -17.95006,-15.001951 -18.98452,-15.628887 -0.3844,-0.232958 -3.46155,2.033279 -9.60387,7.074691 -6.32248,5.189281 -9.31718,7.38859 -9.96914,7.320045 -0.51257,-0.05388 -3.29652,-0.09437 -6.18551,-0.09039 l -5.25206,0.0074 V 23.463349 5.008275 h 7.71851 7.71852 v 7.718516 7.718515 h 3.64526 3.64343 v 5.787042 c 0,3.183794 0.12948,5.788887 0.28778,5.788887 0.15831,0 0.64054,-0.318083 1.07181,-0.708392 0.6926,-0.626784 0.78587,-1.452518 0.78587,-7.07469 v -6.3663 H 42.62202 38.97676 V 10.369175 2.864653 h -9.86215 z m 4.28724,4.669112 v 2.191586 2.189741 l 2.03663,-0.129133 2.03663,-0.130979 V 9.725297 7.795668 L 25.57635,7.664689 Z m 6.8607,0.04612 v 2.145467 2.143622 h 2.14362 2.14547 V 9.725298 7.579831 h -2.14547 z m -6.8607,7.672397 v 2.191586 2.189742 l 2.03663,-0.129135 2.03663,-0.130978 v -1.929629 -1.92963 l -2.03663,-0.130977 z m 6.8607,0.04612 v 2.145466 2.143622 h 2.14362 2.14547 v -2.143622 -2.145466 h -2.14547 z m -6.8607,7.672396 v 2.191586 2.189741 l 2.03663,-0.129133 2.03663,-0.130979 V 25.16233 23.232701 l -2.03663,-0.130979 z m 6.8607,0.04612 v 2.145467 2.143622 h 2.14362 2.14547 v -2.143622 -2.145467 h -2.14547 z m 6.8607,0 v 1.859528 c 0,1.021966 0.12872,1.986406 0.28594,2.143622 0.15723,0.157232 1.12166,0.285939 2.14362,0.285939 h 1.85769 v -2.143622 -2.145467 h -2.14362 z m -13.7214,7.672397 v 2.191585 2.189742 l 2.03663,-0.129134 2.03663,-0.130978 v -1.92963 -1.929629 L 25.57635,30.82024 Z m 6.8607,0.04612 v 2.145466 2.143622 h 2.14362 2.14547 v -2.143622 -2.145466 h -2.14547 z m 6.8607,0 v 1.859527 c 0,1.021958 0.12872,1.986398 0.28594,2.143622 0.15723,0.157216 1.12166,0.285939 2.14362,0.285939 h 1.85769 v -2.143622 -2.145466 h -2.14362 z m 34.68536,1.656603 -2.97562,2.435095 c -2.66379,2.179327 -3.32573,3.198831 -2.07721,3.198831 0.23324,0 1.45695,-0.660983 2.7192,-1.468437 l 2.29489,-1.468436 6.36814,4.218988 c 3.5021,2.32003 6.54996,4.233658 6.774,4.254038 0.51238,0.04654 0.86021,0.352997 -6.75556,-5.930934 l -3.27445,-2.702587 c -0.90745,-0.424706 -1.72002,-1.053646 -2.36131,-1.824478 -0.0944,-0.113423 -0.18425,-0.22956 -0.27118,-0.348661 z m -20.69278,3.91829 c -0.88197,0 -2.70904,1.578273 -2.96639,2.562385 -0.20252,0.774399 -0.0218,0.867042 1.66398,0.867042 h 1.88904 V 38.02591 c 0,-1.163426 -0.18956,-1.715636 -0.58663,-1.715636 z m 1.39095,0.06826 c -0.35017,0.0048 -0.37448,0.468469 -0.37448,1.64738 v 1.71379 h 1.71563 c 2.31808,0 2.15345,-1.625363 -0.29516,-2.929494 -0.50957,-0.27141 -0.83588,-0.43459 -1.04599,-0.431676 z m -2.69336,4.220833 c -1.68586,0 -1.8665,0.09265 -1.66398,0.867041 0.12482,0.477363 0.71184,1.249657 1.30425,1.715636 1.67343,1.316327 2.24877,1.093579 2.24877,-0.868887 v -1.71379 z m 2.31888,0 v 1.71379 c 0,1.88627 0.0617,1.941285 1.42047,1.217549 2.44861,-1.304131 2.61324,-2.931339 0.29516,-2.931339 z" />
  <path
     id="path15362-6-2-5-0"
     style="color:#000000;fill:#ff5555;fill-opacity:0.976471;stroke-width:0.999994;-inkscape-stroke:none"
     d="m 52.37353,27.569877 c -0.3844,-0.232957 -3.46154,2.033272 -9.60386,7.074687 -3.59804,2.953152 -6.08677,4.908529 -7.71114,6.05822 l -0.31729,1.342997 7.02856,-4.589791 c 3.98696,-2.602961 7.94133,-5.168575 8.78479,-5.702183 l 1.53301,-0.970345 8.97112,5.9789 c 9.93638,6.6221 10.71161,7.108293 10.2975,6.438239 C 71.07342,42.743018 53.40799,28.196813 52.37353,27.569877 Z m 19.53796,4.785326 -2.97377,2.435101 c -2.66379,2.179323 -3.32574,3.198831 -2.0772,3.198831 0.23323,0 1.45693,-0.660986 2.71918,-1.468439 l 2.2949,-1.466597 6.36814,4.218991 c 3.5021,2.320029 6.54995,4.233659 6.77399,4.254042 0.51239,0.04657 0.86023,0.351154 -6.75554,-5.932779 z M 41.51522,34.81982 41.3123,34.98769 h 0.20292 z m 9.70534,1.453676 c -0.88197,0 -2.70903,1.580119 -2.96639,2.564226 -0.20251,0.774404 -0.0219,0.867043 1.66398,0.867043 h 1.88905 v -1.71563 c 0,-1.163424 -0.18958,-1.715639 -0.58664,-1.715639 z m 1.39096,0.0701 c -0.35018,0.0047 -0.3745,0.466632 -0.3745,1.645537 v 1.71563 h 1.7138 c 2.31807,0 2.15529,-1.627194 -0.29332,-2.931334 -0.50957,-0.271408 -0.83588,-0.432742 -1.04598,-0.429833 z m -2.69337,4.218991 c -1.68585,0 -1.86649,0.09262 -1.66398,0.867033 0.12483,0.477371 0.71185,1.249669 1.30425,1.71564 1.67343,1.316333 2.24878,1.095418 2.24878,-0.867043 v -1.71563 z m 2.31887,0 v 1.71563 c 0,1.886267 0.0617,1.939443 1.42048,1.215703 2.44861,-1.304129 2.61139,-2.931333 0.29332,-2.931333 z" />
</svg>
